<svg width="40" height="41" viewBox="0 0 40 41" fill="none" xmlns="http://www.w3.org/2000/svg">
<path d="M20.2467 18.7368L23.7468 8.54557L13.3471 23.2616L18.4847 23.4184L15.5674 32.3364L25.8915 18.9091L20.2467 18.7368Z" fill="black"/>
<path d="M10.1335 8.78518C9.95069 9.51298 9.86026 10.3612 9.87076 11.3105C9.58633 11.3947 9.29812 11.486 9.01022 11.585C8.48359 11.766 7.95973 11.9646 7.45492 12.1685C7.36804 10.7323 7.46127 9.39024 7.75939 8.20361C8.1953 6.46847 9.09777 4.97542 10.6041 4.11665C13.2528 2.60663 16.6226 3.64268 19.6294 5.70991C22.2956 7.543 24.9989 10.3843 27.3102 13.8964C26.7373 13.772 26.0878 13.6458 25.3869 13.5347C24.9016 13.4578 24.4107 13.3951 23.94 13.3441C22.1087 10.9261 20.1273 8.99542 18.2317 7.69217C15.4052 5.7489 13.1708 5.44243 11.8272 6.20845C11.0649 6.64302 10.4633 7.47257 10.1335 8.78518Z" fill="black"/>
<path d="M24.5908 14.2331C25.1733 15.0564 25.737 15.9294 26.2737 16.8473C28.6589 20.9268 30 25.0185 30.282 28.302C30.5731 31.6907 29.7247 33.7547 28.3811 34.5207C27.6297 34.949 26.6208 35.0519 25.3319 34.6968C24.5306 34.476 23.6558 34.0856 22.7356 33.5281L22.6173 33.6354C22.0058 34.189 21.3515 34.7103 20.769 35.1482C22.0758 36.0238 23.3949 36.6707 24.6745 37.0233C26.3887 37.4956 28.1202 37.4585 29.6041 36.6125C32.2528 35.1025 33.029 31.7028 32.7194 28.0979C32.4007 24.3878 30.9158 19.9559 28.3921 15.6396C28.2392 15.3781 28.084 15.1197 27.9268 14.8645C27.2072 14.6903 26.2892 14.4932 25.2577 14.3297C25.036 14.2946 24.8129 14.2625 24.5908 14.2331Z" fill="black"/>
<path d="M29.2865 11.9196C26.533 11.1729 23.3591 10.7539 20 10.7539C14.9526 10.7539 10.3232 11.6999 6.90998 13.2825C3.59355 14.8201 1 17.1838 1 20.2038C1 21.9028 1.83997 23.4072 3.12012 24.6399C4.032 25.5179 5.19858 26.292 6.54673 26.9521C6.65564 26.1449 6.8157 25.341 7.03938 24.4812C6.14174 23.9914 5.39972 23.4612 4.82787 22.9106C3.86375 21.9822 3.44611 21.0639 3.44611 20.2038C3.44611 18.6718 4.83207 16.9143 7.94963 15.4689C10.9704 14.0683 15.2295 13.1693 20 13.1693C23.3374 13.1693 26.4244 13.6093 29.0123 14.3532C29.0676 14.042 29.1223 13.693 29.1689 13.3184C29.2287 12.8385 29.2648 12.3457 29.2865 11.9196Z" fill="black"/>
<path d="M29.8999 14.6266C30.6708 14.8806 31.3902 15.1628 32.0504 15.4689C35.1679 16.9143 36.5539 18.6718 36.5539 20.2038C36.5539 21.0639 36.1363 21.9822 35.1721 22.9106C34.5687 23.4916 33.7759 24.0499 32.8106 24.5619C32.9835 25.2467 33.1562 26.0679 33.2761 26.9681L33.2846 27.0336C34.7042 26.3561 35.9302 25.5543 36.8799 24.6399C38.16 23.4072 39 21.9028 39 20.2038C39 17.1838 36.4065 14.8201 33.09 13.2825C32.2022 12.8708 31.2321 12.5023 30.1937 12.1822C30.1704 12.5756 30.135 13.014 30.0811 13.4466C30.0274 13.8782 29.9636 14.277 29.8999 14.6266Z" fill="black"/>
<path d="M22.5237 7.02624C24.6329 5.59787 26.9859 5.51572 28.2756 6.25095C29.6192 7.01697 30.4676 9.08092 30.1766 12.4696C30.0808 13.5843 29.863 14.7921 29.5238 16.0609C29.5365 16.0857 29.5503 16.1127 29.5651 16.1418C29.6549 16.3179 29.7819 16.5694 29.9313 16.8716C30.2298 17.4757 30.6188 18.2849 30.9784 19.1017C31.0048 19.1616 31.0316 19.2243 31.0589 19.2894C31.9139 16.9592 32.4392 14.708 32.6139 12.6738C32.9236 9.06888 32.1473 5.66917 29.4986 4.15915C27.0812 2.78094 23.5086 3.23311 20.6877 5.36408C21.2404 5.82232 21.8461 6.35389 22.4017 6.90524L22.5237 7.02624Z" fill="black"/>
<path d="M30.623 20.4143C30.4851 20.0384 30.3517 19.6976 30.2307 19.4228C29.8775 18.6207 29.4942 17.823 29.1985 17.2247C29.1955 17.2186 29.1925 17.2125 29.1895 17.2065C28.5113 19.3537 27.5033 21.6409 26.1682 23.9243C23.7829 28.0039 20.8649 31.1966 18.1262 33.0795C15.2997 35.0227 13.0654 35.3292 11.7217 34.5632C10.6977 33.9794 9.95251 32.658 9.79461 30.4717C9.63882 28.3148 10.0854 25.5522 11.1711 22.5322C11.6867 21.0981 12.6612 19.1117 13.5326 17.4431C13.9637 16.6178 14.3613 15.8856 14.6511 15.3599C14.796 15.0972 14.9137 14.8864 14.9949 14.7417C15.1122 14.534 15.1122 14.534 15.1122 14.534L15.2542 14.2849C15.0107 14.3192 14.7502 14.3573 14.4722 14.3993C13.6668 14.5212 12.8547 14.687 12.1515 14.8474C11.9154 15.2824 11.6443 15.7889 11.3586 16.336C10.4853 18.0082 9.44201 20.1218 8.86595 21.7241C7.70535 24.9524 7.16796 28.0582 7.35469 30.6436C7.53931 33.1997 8.46308 35.4945 10.4986 36.655C13.1473 38.165 16.5171 37.129 19.5239 35.0617C22.6185 32.9342 25.7629 29.4484 28.2866 25.1321C29.205 23.5613 29.9858 21.9753 30.623 20.4143Z" fill="black"/>
</svg>
